<svg xmlns="http://www.w3.org/2000/svg" width="64" height="64" viewBox="0 0 64 64" shape-rendering="crispEdges">
  <rect x="10" y="15" width="18" height="6" fill="#ead3a2"/>
  <rect x="12" y="13" width="16" height="2" fill="#f8ebcd"/>
  <polygon points="8,22 58,22 49,34 1,34" fill="#c98f52"/>
  <polygon points="10,24 55,24 47,32 4,32" fill="#e4b06d"/>
  <polygon points="12,26 52,26 45,31 7,31" fill="#fff2d2"/>
  <rect x="8" y="34" width="48" height="14" fill="#be7d44"/>
  <rect x="10" y="36" width="44" height="10" fill="#f2cd94"/>
  <rect x="12" y="38" width="16" height="6" fill="#e0b06d"/>
  <rect x="30" y="37" width="21" height="9" fill="#e7dcc3"/>
  <rect x="34" y="39" width="11" height="1" fill="#7b6d5c"/>
  <rect x="34" y="43" width="11" height="1" fill="#7b6d5c"/>
  <rect x="39" y="40" width="1" height="3" fill="#7b6d5c"/>
  <rect x="45" y="40" width="1" height="3" fill="#7b6d5c"/>
  <rect x="33" y="38" width="3" height="3" fill="#5f6f5b"/>
  <rect x="38" y="38" width="3" height="3" fill="#5f6f5b"/>
  <rect x="44" y="38" width="3" height="3" fill="#5f6f5b"/>
  <rect x="33" y="42" width="3" height="3" fill="#5f6f5b"/>
  <rect x="38" y="42" width="3" height="3" fill="#5f6f5b"/>
  <rect x="44" y="42" width="3" height="3" fill="#5f6f5b"/>
  <rect x="8" y="34" width="48" height="2" fill="#fff2d2"/>
  <rect x="8" y="48" width="48" height="2" fill="#8a5c33"/>
</svg>
