<svg xmlns="http://www.w3.org/2000/svg" width="64" height="64" viewBox="0 0 64 64" shape-rendering="crispEdges">
  <rect x="10" y="16" width="18" height="6" fill="#ead3a2"/>
  <rect x="12" y="14" width="16" height="2" fill="#f8ebcd"/>
  <rect x="8" y="22" width="48" height="4" fill="#c98f52"/>
  <rect x="6" y="26" width="52" height="24" fill="#be7d44"/>
  <rect x="8" y="28" width="48" height="20" fill="#e4b06d"/>
  <rect x="10" y="30" width="44" height="16" fill="#f2cd94"/>
  <rect x="12" y="32" width="16" height="10" fill="#e0b06d"/>
  <rect x="30" y="31" width="21" height="13" fill="#e7dcc3"/>
  <rect x="34" y="34" width="11" height="1" fill="#7b6d5c"/>
  <rect x="34" y="40" width="11" height="1" fill="#7b6d5c"/>
  <rect x="39" y="35" width="1" height="5" fill="#7b6d5c"/>
  <rect x="45" y="35" width="1" height="5" fill="#7b6d5c"/>
  <rect x="33" y="33" width="3" height="3" fill="#5f6f5b"/>
  <rect x="38" y="33" width="3" height="3" fill="#5f6f5b"/>
  <rect x="44" y="33" width="3" height="3" fill="#5f6f5b"/>
  <rect x="33" y="39" width="3" height="3" fill="#5f6f5b"/>
  <rect x="38" y="39" width="3" height="3" fill="#5f6f5b"/>
  <rect x="44" y="39" width="3" height="3" fill="#5f6f5b"/>
  <rect x="8" y="28" width="48" height="2" fill="#fff2d2"/>
  <rect x="6" y="48" width="52" height="2" fill="#8a5c33"/>
</svg>
