<svg xmlns="http://www.w3.org/2000/svg" width="48" height="56" viewBox="0 0 48 56" shape-rendering="crispEdges">
  <rect x="21" y="5" width="6" height="5" fill="#fff8ef"/>
  <rect x="20" y="4" width="8" height="1" fill="#4f463c"/>
  <rect x="18" y="10" width="12" height="3" fill="#f4ead9"/>
  <rect x="17" y="13" width="14" height="4" fill="#5a5147"/>
  <rect x="15" y="17" width="18" height="5" fill="#fff6e8"/>
  <rect x="14" y="22" width="20" height="5" fill="#5d5449"/>
  <rect x="13" y="27" width="22" height="6" fill="#fbf2e4"/>
  <rect x="12" y="33" width="24" height="5" fill="#6a5f53"/>
  <rect x="10" y="38" width="28" height="5" fill="#efe4d2"/>
  <rect x="9" y="43" width="30" height="4" fill="#5f564a"/>
  <rect x="8" y="47" width="32" height="4" fill="#fff8ee"/>
  <rect x="9" y="48" width="30" height="1" fill="#ffffff"/>
  <rect x="8" y="51" width="32" height="3" fill="#76695a"/>
  <rect x="16" y="19" width="2" height="2" fill="#d8ccb7"/>
  <rect x="30" y="19" width="2" height="2" fill="#d8ccb7"/>
  <rect x="23" y="15" width="2" height="2" fill="#d8ccb7"/>
</svg>
