<svg xmlns="http://www.w3.org/2000/svg" width="64" height="64" viewBox="0 0 64 64" shape-rendering="crispEdges">
  <rect x="10" y="16" width="18" height="6" fill="#e3cf9f"/>
  <rect x="12" y="14" width="16" height="2" fill="#f7ecce"/>
  <rect x="8" y="22" width="48" height="4" fill="#c38b4f"/>
  <rect x="6" y="26" width="52" height="24" fill="#b87741"/>
  <rect x="8" y="28" width="48" height="20" fill="#deab68"/>
  <rect x="10" y="30" width="44" height="16" fill="#efd09e"/>
  <rect x="12" y="32" width="16" height="10" fill="#dfb16c"/>
  <rect x="30" y="31" width="21" height="13" fill="#e5dac1"/>
  <rect x="39" y="33" width="2" height="9" fill="#5f6f5b"/>
  <rect x="36" y="36" width="8" height="1" fill="#7b6d5c"/>
  <rect x="35" y="39" width="10" height="1" fill="#7b6d5c"/>
  <rect x="34" y="42" width="12" height="1" fill="#7b6d5c"/>
  <rect x="36" y="37" width="1" height="2" fill="#7b6d5c"/>
  <rect x="43" y="37" width="1" height="2" fill="#7b6d5c"/>
  <rect x="35" y="40" width="1" height="2" fill="#7b6d5c"/>
  <rect x="44" y="40" width="1" height="2" fill="#7b6d5c"/>
  <rect x="33" y="34" width="4" height="1" fill="#5f6f5b"/>
  <rect x="43" y="34" width="5" height="1" fill="#5f6f5b"/>
  <rect x="8" y="28" width="48" height="2" fill="#fff2d2"/>
  <rect x="6" y="48" width="52" height="2" fill="#875b31"/>
</svg>
