<svg xmlns="http://www.w3.org/2000/svg" width="64" height="64" viewBox="0 0 64 64" shape-rendering="crispEdges">
  <rect x="10" y="15" width="18" height="6" fill="#f4d182"/>
  <rect x="12" y="13" width="16" height="2" fill="#fff0c1"/>
  <polygon points="8,22 58,22 49,34 1,34" fill="#d79a4e"/>
  <polygon points="10,24 55,24 47,32 4,32" fill="#efb467"/>
  <polygon points="12,26 52,26 45,31 7,31" fill="#fff2c8"/>
  <rect x="8" y="34" width="48" height="14" fill="#c6843f"/>
  <rect x="10" y="36" width="44" height="10" fill="#f7cf8d"/>
  <rect x="12" y="38" width="16" height="6" fill="#e9b86c"/>
  <rect x="31" y="38" width="18" height="6" fill="#f4e4bf"/>
  <rect x="34" y="39" width="11" height="2" fill="#bd8e58"/>
  <rect x="34" y="42" width="8" height="1" fill="#bd8e58"/>
  <rect x="8" y="34" width="48" height="2" fill="#fff2c8"/>
  <rect x="8" y="48" width="48" height="2" fill="#8f5d30"/>
</svg>
