<svg width="64" height="64" viewBox="0 0 64 64" xmlns="http://www.w3.org/2000/svg">
  <rect x="8" y="8" width="48" height="48" rx="6" fill="#efe1bb" stroke="#8c6c3f" stroke-width="2"/>
  <rect x="14" y="14" width="36" height="36" rx="4" fill="#f6edd5" stroke="#b58b52" stroke-width="2"/>
  <path d="M23 31c0-6.2 4.6-10 9-10s9 3.8 9 10H23z" fill="#6f8670" stroke="#4d6b6f" stroke-width="2.5" stroke-linejoin="round"/>
  <path d="M29.5 31v8.5c0 1.3 1.1 2.5 2.5 2.5s2.5-1.2 2.5-2.5V31" fill="#efe1bb" stroke="#8d5f3b" stroke-width="2.5" stroke-linecap="round"/>
  <path d="M32 42v2.5" stroke="#8d5f3b" stroke-width="2.5" stroke-linecap="round"/>
  <path d="M32 44.5c-3.8 0-6.7 1.2-9.2 3.4" fill="none" stroke="#4d6b6f" stroke-width="2" stroke-linecap="round"/>
  <path d="M32 44.5c3.8 0 6.7 1.2 9.2 3.4" fill="none" stroke="#4d6b6f" stroke-width="2" stroke-linecap="round"/>
  <path d="M27 46.4c-0.8 0.7-1.6 1.5-2.3 2.6" fill="none" stroke="#4d6b6f" stroke-width="1.8" stroke-linecap="round"/>
  <path d="M37 46.4c0.8 0.7 1.6 1.5 2.3 2.6" fill="none" stroke="#4d6b6f" stroke-width="1.8" stroke-linecap="round"/>
  <circle cx="27.5" cy="27.8" r="1.1" fill="#efe1bb"/>
  <circle cx="32" cy="25.9" r="1.1" fill="#efe1bb"/>
  <circle cx="36.5" cy="28.1" r="1.1" fill="#efe1bb"/>
</svg>
